<?xml version="1.0" encoding="iso-8859-1"?>
<!-- Generator: Adobe Illustrator 16.0.0, SVG Export Plug-In . SVG Version: 6.00 Build 0)  -->
<!DOCTYPE svg PUBLIC "-//W3C//DTD SVG 1.1//EN" "http://www.w3.org/Graphics/SVG/1.1/DTD/svg11.dtd">
<svg version="1.1" id="Layer_1" xmlns="http://www.w3.org/2000/svg" xmlns:xlink="http://www.w3.org/1999/xlink" x="0px" y="0px"
	 width="192.756px" height="192.756px" viewBox="0 0 192.756 192.756" style="enable-background:new 0 0 192.756 192.756;"
	 xml:space="preserve">
<g>
	<polygon style="fill-rule:evenodd;clip-rule:evenodd;fill:#FFFFFF;" points="0,0 192.756,0 192.756,192.756 0,192.756 0,0 	"/>
	<polygon style="fill-rule:evenodd;clip-rule:evenodd;fill:#F2CA30;" points="6.424,136.467 96.128,186.967 96.377,187.125 
		186.332,136.467 186.332,5.63 96.128,5.63 6.424,5.63 6.424,136.467 	"/>
	<polygon style="fill-rule:evenodd;clip-rule:evenodd;fill:#4284B5;" points="31.856,125.076 96.128,159.629 160.219,125.076 
		160.377,31.085 31.856,31.085 31.856,125.076 	"/>
	<path style="fill-rule:evenodd;clip-rule:evenodd;fill:#FFFFFF;" d="M86.895,145.881l-46.463-25.273V76.89h46.463h9.256h9.257
		h46.439l-0.045,43.717l-46.395,24.865l-9.257,4.945l-0.454,0.25L86.895,145.881L86.895,145.881z M112.895,57.357l-0.047-1.203
		l-0.113-1.157l-0.203-1.157l-0.318-1.111l-0.316-1.112l-0.477-1.089l-0.477-1.066l-0.637-0.998l-0.611-0.998l-0.748-0.885
		l-0.795-0.907l-0.84-0.794l-0.885-0.726l-0.953-0.681l-0.066-0.068l-0.885-0.567l-1.045-0.59l-1.066-0.454l-1.088-0.386
		l-1.158-0.318l-1.111-0.25l-1.156-0.159l-1.158-0.114h-0.59h-0.612l-1.157,0.114l-1.157,0.159l-1.158,0.25l-1.089,0.318
		l-1.111,0.386L88.8,42.247l-1.043,0.59l-0.862,0.544l-0.137,0.091l-0.953,0.681l-0.885,0.726l-0.839,0.794l-0.749,0.907
		l-0.726,0.885l-0.681,0.998l-0.59,0.998l-0.477,1.066l-0.477,1.089l-0.363,1.112l-0.272,1.111l-0.205,1.157l-0.113,1.157
		l-0.045,1.157l0.045,1.202l0.113,1.157l0.205,1.157l0.272,1.112l0.363,1.111l0.477,1.112l0.477,1.044l0.59,0.998l0.681,0.998
		l0.681,0.907l0.794,0.885l0.839,0.794l0.885,0.726l0.953,0.703l0.137,0.068l0.862,0.544l1.043,0.59l1.066,0.476l1.111,0.363
		l1.089,0.318l1.158,0.272l1.157,0.136l1.157,0.114h0.612h0.545l1.203-0.114l1.156-0.136l1.111-0.272l1.158-0.318l1.088-0.363
		l1.066-0.476l1.045-0.59l0.885-0.568l0.066-0.045l0.953-0.703l0.885-0.726l0.84-0.794l0.795-0.885l0.748-0.907l0.611-0.998
		l0.59-0.998l0.523-1.044l0.477-1.112l0.316-1.111l0.318-1.112l0.203-1.157l0.113-1.157L112.895,57.357L112.895,57.357z
		 M105.408,44.992l0.227,0.159l0.84,0.681l0.748,0.794l0.727,0.794l0.68,0.839l0.59,0.885l0.521,0.953l0.477,0.953l0.408,0.999
		l0.387,1.043l0.203,1.066l0.205,1.044l0.113,1.066l0.045,1.089l-0.045,1.066l-0.113,1.088l-0.16,1.067l-0.248,1.043l-0.387,0.999
		l-0.363,0.998l-0.477,0.999l-0.566,0.907l-0.59,0.885l-0.68,0.907l-0.682,0.794l-0.793,0.727l-0.84,0.68l-0.227,0.182l-0.613,0.454
		l-0.953,0.59l-0.953,0.521l-0.93,0.409l-1.066,0.386l-0.998,0.317l-1.043,0.204l-1.113,0.159l-1.042,0.045h-0.545h-0.544
		l-1.066-0.045l-1.044-0.159l-1.043-0.272l-1.066-0.25l-0.998-0.386l-0.999-0.454l-0.953-0.477l-0.953-0.59l-0.59-0.454l-0.25-0.182
		l-0.839-0.68l-0.794-0.794l-0.681-0.794l-0.681-0.839l-0.567-0.885l-0.59-0.953l-0.477-0.953l-0.363-0.998l-0.362-1.043
		l-0.272-1.044l-0.159-1.066l-0.113-1.043l-0.045-1.112l0.045-1.043l0.113-1.111l0.159-1.066l0.272-1.044l0.317-0.998l0.408-0.999
		l0.477-0.998l0.521-0.907l0.635-0.885l0.635-0.839l0.726-0.84l0.794-0.749l0.794-0.681l0.295-0.204l0.59-0.431l0.907-0.567
		l0.998-0.544l0.953-0.409l0.998-0.363l1.043-0.317l1.066-0.227l1.043-0.159l1.112-0.045h0.544h0.477l1.111,0.045l1.045,0.159
		l1.066,0.272l1.043,0.272l0.998,0.363l0.998,0.477l0.953,0.477l0.908,0.567L105.408,44.992L105.408,44.992z M105.408,64.617
		l0.021-0.046l0.363-0.726l0.318-0.908l0.248-0.998l0.229-1.158l0.158-1.156l0.09-1.271l0.068-1.203l-0.068-1.271l-0.09-1.202
		l-0.113-1.158l-0.205-1.111l-0.271-0.998l-0.318-0.885l-0.408-0.794l-0.021-0.045l-0.363-0.544l-0.521-0.363l-0.637-0.204v17.265
		l0.59-0.272l0.477-0.362L105.408,64.617L105.408,64.617z M105.408,47.465l0.113,0.113l0.477,0.363l0.361,0.431l0.387,0.521
		l0.318,0.522l0.248,0.566l0.273,0.636l0.203,0.681l0.16,0.703l0.158,0.681l0.113,0.794l0.09,0.726l0.113,0.749l0.047,0.771v0.749
		l0.113,0.681l-0.045,0.794l-0.068,0.726l-0.047,0.749l-0.045,0.726l-0.158,0.681l-0.113,0.749l-0.158,0.68l-0.16,0.635
		l-0.203,0.681l-0.273,0.635l-0.248,0.567l-0.318,0.59l-0.318,0.522l-0.43,0.476l-0.41,0.432l-0.18,0.113l-0.295,0.204l-0.59,0.295
		l-0.568,0.272l-0.635,0.159l-0.748,0.113v-6.012h-6.421h-0.022h-6.421l-0.045,6.012l-0.703-0.113l-0.613-0.159l-0.59-0.272
		l-0.567-0.295l-0.295-0.204l-0.182-0.113l-0.431-0.432l-0.408-0.476l-0.318-0.522l-0.386-0.59l-0.25-0.567l-0.204-0.635
		l-0.227-0.681l-0.204-0.635l-0.159-0.68l-0.113-0.749l-0.091-0.681l-0.068-0.726l-0.09-0.749v-0.726l-0.068-0.794l0.114-0.681
		v-0.749l0.045-0.771l0.114-0.749l0.045-0.726l0.159-0.794l0.159-0.681l0.159-0.703l0.227-0.681l0.204-0.636l0.318-0.566
		l0.317-0.522l0.318-0.521l0.408-0.431l0.476-0.363l0.137-0.113l0.295-0.205l0.567-0.272l0.59-0.158l0.613-0.091l0.748,0.045v5.898
		h6.421h0.022h6.421v-5.944h0.748l0.635,0.091l0.568,0.158l0.59,0.272L105.408,47.465L105.408,47.465z M96.151,60.624h6.421v-6.693
		h-6.421h-6.443v6.693H96.151L96.151,60.624z M86.895,64.617l0.453,0.59l0.454,0.431l0.59,0.25V48.623l-0.635,0.158l-0.522,0.363
		l-0.34,0.521l-0.091,0.113l-0.363,0.749l-0.317,0.885l-0.25,0.998l-0.227,1.111l-0.159,1.158l-0.045,1.271l-0.046,1.202
		l0.046,1.271l0.113,1.203l0.159,1.156l0.204,1.158l0.249,0.998l0.318,0.908l0.385,0.726L86.895,64.617L86.895,64.617z"/>
	<path style="fill-rule:evenodd;clip-rule:evenodd;fill:#A81C22;" d="M51.866,104.658v-3.742h2.995h0.998l0.59,0.068l0.159,0.045
		l0.204,0.113l0.159,0.045l0.159,0.113l0.159,0.16l0.204,0.248l0.204,0.318l0.113,0.363l0.045,0.271v0.205v0.271l-0.091,0.25
		l-0.113,0.316l-0.159,0.229l-0.204,0.248l-0.386,0.229l-0.294,0.158l-0.272,0.045l-0.432,0.045l-0.249,0.068l-0.794-0.023
		L51.866,104.658L51.866,104.658z M75.256,105.18h0.136l0.635-0.09l0.567-0.113l0.362-0.158l0.318-0.16l0.476-0.248l0.476-0.387
		l0.272-0.318l0.317-0.453l0.205-0.271l0.159-0.318l0.113-0.316l0.204-0.637l0.205-0.68l0.113-0.795l0.045-0.477l0.045-0.771v-0.703
		l-0.045-0.84l-0.045-0.408l-0.068-0.476l-0.091-0.408l-0.159-0.477l-0.158-0.408l-0.159-0.363l-0.204-0.386l-0.227-0.363
		l-0.205-0.317l-0.272-0.25l-0.25-0.272l-0.272-0.204l-0.25-0.227l-0.272-0.159l-0.318-0.136l-0.362-0.113l-0.635-0.159
		l-0.431-0.045h-0.227H75.12h-0.522l-0.272,0.091l-0.294,0.068l-0.386,0.159l-0.317,0.136l-0.318,0.227l-0.317,0.205l-0.25,0.204
		l-0.272,0.272l-0.25,0.272L71.694,94.2l-0.204,0.385l-0.204,0.318l-0.114,0.318l-0.159,0.363l-0.09,0.363L70.81,96.4l-0.114,0.408
		l-0.045,0.477l-0.045,0.432v0.521v0.59l0.045,0.613l0.045,0.635l0.114,0.635l0.113,0.59l0.159,0.521l0.205,0.523l0.204,0.588
		l0.204,0.318l0.272,0.363l0.272,0.318l0.091,0.158l0.227,0.205l0.408,0.271l0.272,0.203l0.318,0.092l0.522,0.158l0.567,0.113
		l0.431,0.045H75.256L75.256,105.18z M75.256,87.757l0.34,0.022h0.59l0.681,0.068l0.635,0.091l0.726,0.159l0.681,0.159l0.681,0.227
		l0.59,0.25l0.567,0.272l0.635,0.363l0.544,0.317l0.454,0.363l0.431,0.363l0.431,0.386l0.363,0.408l0.363,0.476l0.317,0.431
		l0.272,0.408l0.204,0.431l0.25,0.522l0.227,0.521l0.204,0.522l0.159,0.544l0.159,0.522l0.114,0.567l0.09,0.567l0.068,0.566
		l0.045,0.545l0.045,0.453l-0.045,0.908l-0.045,0.566l-0.068,0.637l-0.09,0.635l-0.159,0.635l-0.159,0.682l-0.159,0.635
		l-0.271,0.566l-0.205,0.59l-0.272,0.521l-0.318,0.477l-0.25,0.477l-0.386,0.477l-0.363,0.477l-0.409,0.408l-0.431,0.432
		l-0.431,0.363l-0.409,0.316l-0.431,0.273l-0.477,0.248l-0.522,0.205l-0.521,0.227l-0.477,0.205l-0.476,0.113l-0.522,0.09
		l-0.521,0.113l-0.522,0.047l-0.589,0.066l-0.567,0.047h-0.59h-0.182h-0.453l-0.727-0.047l-0.681-0.113l-0.749-0.113l-0.681-0.09
		l-0.68-0.227l-0.636-0.205l-0.59-0.203l-0.521-0.273l-0.477-0.25l-0.409-0.316l-0.43-0.273l-0.409-0.316l-0.317-0.363l-0.318-0.318
		l-0.317-0.363l-0.272-0.361l-0.159-0.229l-0.408-0.725l-0.318-0.477l-0.272-0.59l-0.25-0.727l-0.227-0.635l-0.159-0.568
		l-0.091-0.635l-0.113-0.635l-0.091-0.635v-0.637l-0.068-0.635v-0.68l0.068-0.637l0.046-0.68l0.113-0.612l0.136-0.567l0.113-0.59
		l0.204-0.566l0.272-0.636l0.272-0.59l0.318-0.567l0.294-0.522l0.317-0.477l0.385-0.476l0.409-0.431l0.362-0.409l0.432-0.317
		l0.431-0.318l0.454-0.317l0.477-0.272l0.521-0.249l0.544-0.272l0.522-0.204l0.477-0.159l0.521-0.114l0.521-0.091l0.59-0.113
		l0.567-0.045l0.59-0.068l0.567-0.046L75.256,87.757L75.256,87.757z M92.294,101.301h-5.808v1.045l0.068,0.793l0.045,0.84
		l0.204,0.793l0.273,0.795l0.271,0.408l0.205,0.432l0.318,0.408l0.317,0.385l0.408,0.363l0.432,0.363l0.476,0.318l0.477,0.271
		l0.567,0.25l0.59,0.203l0.567,0.16l0.68,0.158l0.635,0.068l0.681,0.045l0.681,0.045h0.636l0.635-0.045h0.635l0.613-0.045
		l0.567-0.068l0.59-0.092l0.521-0.113l0.59-0.158l0.521-0.158l0.477-0.16l0.521-0.248l0.477-0.227l0.408-0.25l0.477-0.318
		l0.363-0.318l0.387-0.316l0.363-0.363l0.316-0.318l0.318-0.43l0.25-0.363l0.227-0.363l0.203-0.432l0.273-0.725l0.203-0.682
		l0.045-0.59v-0.59l-0.045-0.566l-0.158-0.635l-0.113-0.41l-0.205-0.385l-0.203-0.318L104,99.395l-0.316-0.361l-0.318-0.318
		l-0.408-0.318l-0.432-0.316l-0.477-0.25l-0.521-0.271l-0.59-0.205l-0.521-0.227l-0.68-0.205L99.1,96.719l-0.725-0.205l-0.75-0.203
		L96.9,96.105l-0.567-0.158l-0.477-0.114l-0.726-0.25l-0.522-0.227l-0.477-0.204l-0.363-0.204L93.61,94.79l-0.114-0.113
		l-0.114-0.091l-0.045-0.113l-0.044-0.159V94.2l-0.068-0.159v-0.091l0.068-0.204l0.09-0.272l0.068-0.204l0.159-0.159l0.09-0.113
		l0.227-0.159l0.205-0.159l0.25-0.091l0.272-0.113l0.363-0.045l0.59-0.068h0.566l0.567,0.068l0.476,0.045l0.363,0.159l0.273,0.159
		l0.158,0.091l0.09,0.159l0.113,0.114l0.092,0.204l0.113,0.317l0.158,0.635l0.045,0.159l0.068,0.749h5.99v-1.066l-0.092-0.84
		l-0.113-0.431l-0.113-0.454L104.205,92L104,91.569l-0.203-0.409l-0.273-0.363l-0.316-0.386l-0.318-0.317l-0.363-0.363l-0.408-0.317
		l-0.432-0.25l-0.475-0.272l-0.477-0.204l-0.521-0.204l-0.523-0.227l-0.635-0.159l-0.635-0.091l-0.682-0.113l-0.68-0.045
		l-0.726-0.068l-0.681-0.046l-0.635,0.046H94.45l-0.59,0.068l-0.522,0.091l-0.521,0.113l-0.476,0.114l-0.477,0.091l-0.477,0.227
		l-0.409,0.159l-0.476,0.204l-0.431,0.249l-0.363,0.272l-0.362,0.317l-0.386,0.318l-0.363,0.363l-0.317,0.432l-0.25,0.363
		l-0.272,0.409L87.553,92l-0.159,0.477l-0.159,0.476l-0.113,0.477l-0.159,0.93l0.068,0.907l0.091,0.726l0.226,0.568l0.25,0.636
		l0.272,0.408l0.249,0.316l0.386,0.363l0.408,0.387l0.522,0.316l0.635,0.363l0.681,0.363l0.749,0.318l0.794,0.271l0.839,0.318
		l0.884,0.295l0.953,0.271l0.794,0.273l0.567,0.158l0.454,0.158l0.636,0.205l0.635,0.248l0.158,0.115l0.205,0.203l0.158,0.273
		l0.113,0.158v0.113v0.203v0.092l-0.068,0.158l-0.045,0.113l-0.113,0.16l-0.203,0.271l-0.16,0.09l-0.203,0.16l-0.205,0.113
		l-0.385,0.113l-0.613,0.158l-0.613,0.092h-0.544h-0.613l-0.59-0.092l-0.567-0.113l-0.159-0.045l-0.159-0.113l-0.227-0.113
		l-0.159-0.092l-0.091-0.158l-0.159-0.158l-0.159-0.273l-0.113-0.271l-0.091-0.295l-0.159-0.748V101.301L92.294,101.301z
		 M125.895,101.461h-6.148l-0.16,0.725l-0.203,0.59l-0.227,0.477l-0.16,0.363l-0.248,0.363l-0.229,0.203l-0.316,0.229l-0.453,0.316
		l-0.545,0.205l-0.363,0.045l-0.363,0.045l-0.318,0.068h-0.316l-0.363-0.068l-0.59-0.158l-0.521-0.137l-0.25-0.158l-0.318-0.227
		l-0.477-0.363l-0.227-0.205l-0.203-0.316l-0.205-0.318l-0.203-0.316l-0.16-0.363l-0.158-0.432l-0.113-0.521l-0.158-0.521
		l-0.113-0.59l-0.047-0.637l-0.045-0.566V98.67v-0.545l0.045-0.453l0.113-0.545l0.047-0.453l0.113-0.41l0.09-0.43l0.113-0.363
		l0.113-0.318l0.16-0.317l0.203-0.318l0.158-0.317l0.205-0.25l0.205-0.272l0.271-0.204l0.271-0.204l0.25-0.227l0.273-0.091
		l0.248-0.113l0.637-0.159l0.635-0.045h0.59l0.521,0.09l0.521,0.114l0.477,0.272l0.363,0.204l0.271,0.272l0.318,0.363l0.203,0.363
		l0.205,0.522l0.271,0.59l0.16,0.838h6.102l-0.113-0.998l-0.045-0.749l-0.205-0.839l-0.158-0.408l-0.113-0.431l-0.203-0.408
		L124.805,92l-0.271-0.363l-0.273-0.431l-0.316-0.317l-0.318-0.363l-0.408-0.363l-0.432-0.318l-0.477-0.317l-0.453-0.272
		l-0.545-0.25l-0.521-0.227l-0.566-0.204l-0.637-0.159l-0.59-0.091l-0.68-0.113l-0.635-0.114l-0.637-0.045h-0.611h-0.59h-0.635
		l-0.568,0.045l-0.59,0.068l-0.635,0.091l-0.568,0.113l-0.59,0.159l-0.521,0.159l-0.477,0.204l-0.521,0.204l-0.477,0.272
		l-0.408,0.317l-0.477,0.318l-0.43,0.363l-0.408,0.363l-0.387,0.431l-0.363,0.409l-0.363,0.476l-0.316,0.544l-0.318,0.454
		l-0.271,0.544l-0.205,0.567l-0.203,0.522l-0.205,0.589l-0.113,0.567l-0.158,0.567l-0.113,0.568l-0.047,0.635l-0.045,0.59v0.635
		v0.566l0.045,0.637l0.047,0.59l0.113,0.611l0.113,0.59l0.158,0.568l0.158,0.543l0.205,0.523l0.205,0.521l0.203,0.477l0.271,0.521
		l0.318,0.432l0.25,0.477l0.316,0.408l0.387,0.361l0.318,0.387l0.361,0.318l0.408,0.295l0.432,0.316l0.521,0.318l0.521,0.271
		l0.545,0.205l0.568,0.203l0.59,0.227l0.566,0.16l0.59,0.09l0.521,0.068l0.568,0.092l0.543,0.066h0.523l1.088,0.047l1.021-0.113
		l0.521-0.047l0.477-0.113l0.477-0.045l0.521-0.158l0.477-0.113l0.477-0.16l0.453-0.203l0.477-0.205l0.477-0.271l0.432-0.318
		l0.363-0.25l0.361-0.316l0.318-0.318l0.318-0.363l0.316-0.385l0.273-0.408l0.203-0.477l0.205-0.477l0.203-0.477l0.16-0.521
		l0.113-0.477l0.113-0.408l0.045-0.477L125.895,101.461L125.895,101.461z M132.541,109.287v-8.779h7.418v8.779h5.99v-21.19h-6.057
		v7.805h-7.352v-7.805h-6.057v21.19H132.541L132.541,109.287z M54.861,96.151h-3.108v-3.426h3.108h0.521l0.363,0.068l0.272,0.091
		l0.205,0.068l0.227,0.091l0.25,0.227l0.159,0.159l0.114,0.158l0.159,0.204l0.045,0.204l0.046,0.272l0.068,0.159l-0.068,0.25
		l-0.159,0.385l-0.205,0.363l-0.204,0.249l-0.159,0.159l-0.318,0.158l-0.317,0.114L55.7,96.151h-0.113H54.861L54.861,96.151z
		 M54.861,88.097h-8.576v21.258h8.576h0.363l0.635-0.068h0.635l0.635-0.045l0.567-0.047l0.521-0.113l0.544-0.113l0.522-0.09
		l0.477-0.158l0.408-0.16l0.431-0.203l0.409-0.227l0.385-0.205l0.363-0.271l0.318-0.295l0.363-0.318l0.318-0.387l0.317-0.361
		l0.25-0.408l0.227-0.432l0.159-0.432l0.159-0.453l0.091-0.477l0.113-0.908v-0.521l-0.159-0.793l-0.113-0.477l-0.159-0.408
		l-0.205-0.432l-0.408-0.635l-0.272-0.363l-0.272-0.318l-0.363-0.25l-0.363-0.271l-0.363-0.271l-0.431-0.25h-0.045l0.204-0.205
		l0.318-0.271l0.317-0.318l0.25-0.316l0.272-0.318l0.204-0.363l0.227-0.34l0.159-0.431l0.204-0.794l0.159-0.84v-0.794l-0.113-0.681
		l-0.204-0.567l-0.272-0.681l-0.249-0.385l-0.272-0.363l-0.318-0.317L61.44,89.89l-0.431-0.318l-0.454-0.25l-0.544-0.318
		l-0.522-0.227l-0.635-0.204l-0.567-0.159l-0.59-0.091l-0.635-0.113l-0.522-0.045l-1.044-0.068H54.861L54.861,88.097z"/>
	<path style="fill-rule:evenodd;clip-rule:evenodd;fill:#4284B5;" d="M77.344,125.553h6.829v-1.723h-4.674v-2.746h4.152v-1.725
		h-4.152v-2.336l4.515-0.045v-1.68h-6.67V125.553L77.344,125.553z M89.368,119.609h0.386l0.272-0.045l0.205-0.068l0.159-0.09
		l0.159-0.047l0.113-0.113l0.091-0.113l0.068-0.09l0.09-0.113l0.068-0.047v-0.113l0.046-0.113l0.045-0.203v-0.205v-0.158
		l-0.045-0.158l-0.046-0.16l-0.068-0.113l-0.09-0.09l-0.159-0.227l-0.113-0.047l-0.113-0.113l-0.091-0.045l-0.113-0.045
		l-0.159-0.068h-0.249l-0.272-0.045h-0.182h-1.725v2.631H89.368L89.368,119.609z M89.368,115.299h0.544h0.272l0.25,0.045h0.272
		l0.318,0.068l0.272,0.045l0.204,0.092l0.25,0.113l0.226,0.113l0.205,0.09l0.204,0.16l0.159,0.113l0.159,0.158l0.113,0.158
		l0.091,0.115l0.159,0.295l0.114,0.385l0.045,0.25l0.068,0.385v0.363l-0.114,0.408l-0.045,0.227l-0.068,0.205l-0.091,0.158
		l-0.113,0.16l-0.091,0.203l-0.159,0.158l-0.159,0.115l-0.113,0.158l-0.159,0.09l-0.317,0.227l-0.159,0.092l0.159,0.068l0.113,0.09
		l0.318,0.205l0.09,0.158l0.114,0.158l0.113,0.16l0.091,0.158l0.068,0.227l0.091,0.318l0.045,0.295l0.272,2.223v0.113l0.045,0.158
		l0.113,0.25l0.159,0.273l0.114,0.09l0.09,0.113l0.068,0.045h-2.428l-0.159-0.316l-0.045-0.205l-0.068-0.203l-0.045-0.205
		l-0.046-0.271v-0.318l-0.158-1.52l-0.068-0.273l-0.091-0.203l-0.113-0.203l-0.113-0.115l-0.091-0.113l-0.159-0.09l-0.159-0.068
		l-0.159-0.045l-0.204-0.047h-0.113h-0.182h-1.725v4.197h-2.087v-10.254H89.368L89.368,115.299z M97.898,125.553h2.041l4.016-10.254
		h-2.223l-2.156,6.148l-0.113,0.271l-0.09,0.205l-0.113,0.432l-0.092,0.316L99.1,122.99l-0.045,0.158l-0.045-0.158l-0.113-0.387
		l-0.113-0.316l-0.092-0.363l-0.113-0.158l-0.045-0.205l-2.201-6.262h-2.359L97.898,125.553L97.898,125.553z M104.885,125.553h2.225
		v-10.254h-2.225V125.553L104.885,125.553z M117.521,122.127h-2.312v0.16l-0.092,0.316l-0.113,0.318l-0.113,0.227l-0.158,0.205
		l-0.16,0.158l-0.158,0.158l-0.25,0.16l-0.316,0.09l-0.205,0.068l-0.158,0.045h-0.227h-0.16l-0.25-0.045l-0.271-0.068l-0.25-0.09
		l-0.227-0.115l-0.158-0.158l-0.25-0.158l-0.113-0.158l-0.158-0.16l-0.092-0.203l-0.113-0.205l-0.045-0.227l-0.113-0.205
		l-0.045-0.316l-0.068-0.25l-0.047-0.318l-0.045-0.316v-0.318v-0.316v-0.318v-0.271l0.045-0.25v-0.271l0.047-0.205l0.068-0.205
		l0.045-0.227l0.113-0.203l0.045-0.16l0.113-0.203l0.092-0.158l0.113-0.16l0.09-0.158l0.16-0.158l0.158-0.113l0.158-0.092
		l0.158-0.113l0.16-0.045l0.316-0.113l0.363-0.047h0.318l0.318,0.047l0.271,0.113l0.25,0.158l0.271,0.158l0.158,0.16l0.16,0.203
		l0.113,0.205l0.09,0.316l0.16,0.318v0.205h2.312l-0.045-0.16v-0.363l-0.113-0.361l-0.045-0.205l-0.045-0.227l-0.113-0.205
		l-0.115-0.158l-0.09-0.205l-0.113-0.158l-0.092-0.203l-0.158-0.16l-0.158-0.158l-0.227-0.158l-0.205-0.113l-0.203-0.16
		l-0.229-0.113l-0.248-0.09l-0.205-0.113l-0.271-0.047l-0.318-0.045l-0.271-0.068l-0.295-0.045l-0.273-0.045h-0.316h-0.273h-0.25
		h-0.271l-0.25,0.045l-0.271,0.045l-0.271,0.068l-0.25,0.045l-0.273,0.092l-0.203,0.113l-0.205,0.113l-0.227,0.09l-0.203,0.16
		l-0.16,0.158l-0.203,0.158l-0.16,0.16l-0.203,0.227l-0.158,0.203l-0.16,0.25l-0.113,0.227l-0.158,0.25l-0.113,0.273l-0.092,0.248
		l-0.113,0.273l-0.09,0.271l-0.068,0.25l-0.045,0.318l-0.045,0.271v0.318l-0.068,0.316v0.25v0.318v0.316l0.068,0.271l0.045,0.318
		l0.045,0.318l0.068,0.248l0.09,0.273l0.045,0.25l0.115,0.227l0.113,0.25l0.09,0.271l0.158,0.203l0.115,0.205l0.158,0.227
		l0.158,0.16l0.113,0.158l0.16,0.158l0.203,0.158l0.158,0.137l0.25,0.158l0.227,0.115l0.25,0.113l0.271,0.09l0.205,0.113
		l0.271,0.045l0.25,0.068l0.273,0.045l0.271,0.047h0.203l0.25,0.068h0.477l0.477-0.068l0.205-0.047h0.227l0.25-0.045l0.227-0.068
		l0.203-0.09l0.205-0.068l0.203-0.09l0.229-0.113l0.203-0.115l0.158-0.158l0.205-0.09l0.113-0.16l0.158-0.158l0.16-0.158l0.09-0.16
		l0.113-0.203l0.113-0.227l0.092-0.205l0.068-0.25l0.09-0.227l0.068-0.248v-0.229l0.045-0.203L117.521,122.127L117.521,122.127z
		 M118.951,125.553h6.852v-1.723h-4.695v-2.746h4.15v-1.725h-4.15v-2.336l4.537-0.045v-1.68h-6.693V125.553L118.951,125.553z
		 M69.857,122.082h-2.11v0.205v0.385l0.068,0.408l0.091,0.387l0.113,0.363l0.114,0.203l0.045,0.158l0.159,0.205l0.159,0.158
		l0.158,0.227l0.16,0.137l0.204,0.158l0.204,0.115l0.272,0.113l0.204,0.09l0.272,0.113l0.317,0.045l0.25,0.068h0.317h0.317h0.318
		h0.271h0.318l0.249-0.068h0.272l0.25-0.045l0.272-0.045l0.205-0.068l0.272-0.09l0.204-0.113l0.227-0.115l0.204-0.09l0.204-0.113
		l0.204-0.158l0.16-0.16l0.158-0.158l0.159-0.158l0.159-0.16l0.114-0.158l0.091-0.205l0.113-0.158l0.114-0.203l0.091-0.318
		l0.068-0.318l0.045-0.271v-0.25v-0.271l-0.114-0.318l-0.045-0.158l-0.045-0.158l-0.114-0.16l-0.113-0.158l-0.091-0.158
		l-0.159-0.137l-0.159-0.158l-0.204-0.113l-0.227-0.16l-0.204-0.113l-0.272-0.09l-0.25-0.113l-0.272-0.113l-0.317-0.092
		l-0.318-0.113l-0.363-0.113l-0.363-0.09l-0.272-0.113l-0.25-0.047l-0.317-0.113l-0.317-0.158l-0.204-0.092l-0.227-0.158
		l-0.091-0.068l-0.114-0.09l-0.045-0.113l-0.068-0.113l-0.045-0.092v-0.113v-0.092v-0.111v-0.16l0.045-0.158l0.068-0.158
		l0.091-0.113l0.113-0.092l0.113-0.113l0.159-0.113l0.159-0.092l0.159-0.066l0.204-0.047h0.317h0.318h0.249l0.272,0.047l0.25,0.113
		l0.159,0.113l0.113,0.09l0.113,0.113l0.046,0.113l0.045,0.16l0.113,0.158l0.045,0.363v0.09l0.068,0.113h2.201v-0.203l-0.045-0.363
		l-0.068-0.227l-0.046-0.205l-0.045-0.203l-0.068-0.227l-0.091-0.137l-0.114-0.227l-0.159-0.16l-0.091-0.158l-0.159-0.158
		l-0.227-0.092l-0.159-0.158l-0.204-0.113l-0.204-0.113l-0.204-0.092l-0.272-0.113l-0.272-0.045l-0.25-0.113h-0.318l-0.318-0.045
		l-0.362-0.045h-0.318h-0.271l-0.25,0.045h-0.272l-0.272,0.045l-0.205,0.068l-0.204,0.045l-0.227,0.045l-0.204,0.113l-0.159,0.047
		l-0.204,0.113l-0.159,0.09l-0.204,0.158l-0.159,0.115l-0.158,0.158l-0.114,0.203l-0.159,0.16l-0.091,0.227l-0.113,0.137
		l-0.113,0.227l-0.045,0.203l-0.113,0.205l-0.046,0.271l-0.045,0.408v0.432l0.091,0.318l0.068,0.271l0.091,0.295l0.113,0.158
		l0.113,0.16l0.159,0.158l0.136,0.158l0.272,0.16l0.272,0.158l0.317,0.158l0.318,0.16l0.363,0.158l0.409,0.158l0.431,0.158
		l0.408,0.16l0.386,0.113l0.317,0.09l0.204,0.068l0.318,0.16l0.318,0.158l0.158,0.045l0.091,0.158l0.159,0.16l0.068,0.158v0.158
		v0.16v0.09l-0.068,0.113l-0.045,0.113l-0.045,0.092l-0.113,0.158l-0.159,0.113l-0.113,0.092l-0.159,0.066l-0.159,0.092
		l-0.363,0.068l-0.317,0.045l-0.25,0.045l-0.385-0.045h-0.295l-0.272-0.113l-0.159-0.047l-0.113-0.045l-0.091-0.066l-0.114-0.092
		l-0.113-0.113l-0.046-0.092l-0.113-0.158l-0.045-0.227l-0.091-0.158l-0.068-0.477V122.082L69.857,122.082z"/>
</g>
</svg>
